<svg id="Layer_1" data-name="Layer 1" xmlns="http://www.w3.org/2000/svg" viewBox="0 0 1192.25 842.89"><defs><style>.cls-1{fill:#9fc495;stroke:#9fc495;}.cls-1,.cls-2,.cls-3,.cls-4,.cls-5,.cls-6,.cls-7{stroke-miterlimit:10;}.cls-2{fill:#898989;stroke:#898989;}.cls-3{fill:#333;stroke:#333;}.cls-4{fill:#41672a;stroke:#41672a;}.cls-5{fill:#4a782e;stroke:#4a782e;}.cls-6{fill:#4f802f;stroke:#4f802f;}.cls-7{fill:#5f984c;stroke:#5f984c;}.cls-8{font-size:22.15px;}.cls-10,.cls-11,.cls-12,.cls-13,.cls-14,.cls-15,.cls-8,.cls-9{fill:#fff;font-family:MyriadPro-Regular, Myriad Pro;}.cls-9{font-size:22.16px;}.cls-10{font-size:24.55px;}.cls-11{font-size:25.76px;}.cls-12{font-size:26.96px;}.cls-13{font-size:25.98px;}.cls-14{font-size:26.53px;}.cls-15{font-size:21px;}</style></defs><title>MapDone</title><rect id="Background" class="cls-1" x="1.98" y="1.12" width="1189.77" height="841.18"/><g id="Path"><rect class="cls-2" x="2.38" y="813.6" width="1189.37" height="28.7"/><rect class="cls-2" x="78.45" y="525.07" width="604.75" height="28.7" transform="translate(921.45 159.09) rotate(90)"/><path class="cls-2" d="M366.48,238.83Q376.22,119.42,385.94,0h29L394.88,246.12Z" transform="translate(1.2 0.5)"/><path class="cls-2" d="M.73,480.89l371.81-14.62,1.13,28.67L.38,509.62Z" transform="translate(1.2 0.5)"/><path class="cls-2" d="M966.94,841.89c-15-77.35-37.85-259.07,60.22-451.9,44-86.49,99.72-150.46,145.69-194.33l-41.1-20C1085.26,220.52,1030.16,284.52,986.06,370c-103.4,200.46-80,390.53-64.35,471.89Z" transform="translate(1.2 0.5)"/><path class="cls-2" d="M138.15,212.33l10.59,269.22-28.67,1.13q-5.32-135.15-10.63-270.3Z" transform="translate(1.2 0.5)"/><path class="cls-2" d="M-.33,188l374-14.7L374.74,202-.69,216.71Z" transform="translate(1.2 0.5)"/><rect class="cls-2" x="1074.11" y="696.48" width="52.04" height="180.7" transform="translate(1885.03 -315.03) rotate(89.84)"/><path class="cls-2" d="M1190.52,186.69c-90.77-24.2-190.36-46.47-298.13-64.44A3222.88,3222.88,0,0,0,394.1,78.61L.81,77.53,0,140c166.15-5.32,305.72-2.62,409.38,1.53,185.32,7.41,347.66,14.61,554.12,57.59,96.4,20.07,174.54,42.13,226.76,58.11Q1190.41,222,1190.52,186.69Z" transform="translate(1.2 0.5)"/></g><g id="Buildings"><rect class="cls-3" x="154.13" y="214.54" width="199.56" height="244.59" transform="translate(-12.33 11.14) rotate(-2.34)"/><rect class="cls-3" x="14.58" y="223.54" width="92.03" height="244.59" transform="translate(-12.86 3.26) rotate(-2.34)"/><rect class="cls-3" x="1079.58" y="722.73" width="38" height="131.7" transform="translate(1885.24 -311.73) rotate(89.84)"/></g><g id="Trees"><circle class="cls-4" cx="42.63" cy="741.59" r="7.61"/><circle class="cls-4" cx="26.81" cy="762.31" r="7.61"/><circle class="cls-4" cx="11.91" cy="750.36" r="7.61"/><circle class="cls-5" cx="37.04" cy="760.17" r="7.61"/><circle class="cls-6" cx="14.37" cy="740.79" r="7.61"/><circle class="cls-7" cx="27.18" cy="749.23" r="15.23"/><text class="cls-8" transform="translate(23.31 756.71)">1</text><circle class="cls-4" cx="42.06" cy="560.92" r="7.61"/><circle class="cls-4" cx="26.24" cy="581.63" r="7.61"/><circle class="cls-4" cx="11.35" cy="569.68" r="7.61"/><circle class="cls-5" cx="36.48" cy="579.5" r="7.61"/><circle class="cls-6" cx="13.8" cy="560.12" r="7.61"/><circle class="cls-7" cx="26.61" cy="568.55" r="15.23"/><text class="cls-8" transform="translate(21.42 576.04)">2</text><circle class="cls-4" cx="63.11" cy="650.52" r="7.61"/><circle class="cls-4" cx="47.29" cy="671.24" r="7.61"/><circle class="cls-4" cx="32.4" cy="659.29" r="7.61"/><circle class="cls-5" cx="57.52" cy="669.1" r="7.61"/><circle class="cls-6" cx="34.85" cy="649.72" r="7.61"/><circle class="cls-7" cx="47.66" cy="658.16" r="15.23"/><text class="cls-8" transform="translate(42.46 664.93)">3</text><circle class="cls-4" cx="98.74" cy="742.3" r="7.61"/><circle class="cls-4" cx="82.92" cy="763.01" r="7.61"/><circle class="cls-4" cx="68.03" cy="751.06" r="7.61"/><circle class="cls-5" cx="93.16" cy="760.87" r="7.61"/><circle class="cls-6" cx="70.48" cy="741.5" r="7.61"/><circle class="cls-7" cx="83.29" cy="749.93" r="15.23"/><text class="cls-8" transform="translate(77.53 757.42)">4</text><circle class="cls-4" cx="98.18" cy="561.62" r="7.61"/><circle class="cls-4" cx="82.36" cy="582.33" r="7.61"/><circle class="cls-4" cx="67.46" cy="570.38" r="7.61"/><circle class="cls-5" cx="92.59" cy="580.2" r="7.61"/><circle class="cls-6" cx="69.92" cy="560.82" r="7.61"/><circle class="cls-7" cx="82.73" cy="569.25" r="15.23"/><text class="cls-8" transform="translate(77.53 576.74)">5</text><circle class="cls-4" cx="119.23" cy="652.33" r="7.61"/><circle class="cls-4" cx="103.41" cy="673.05" r="7.61"/><circle class="cls-4" cx="88.51" cy="661.1" r="7.61"/><circle class="cls-5" cx="113.64" cy="670.91" r="7.61"/><circle class="cls-6" cx="90.97" cy="651.53" r="7.61"/><circle class="cls-7" cx="103.78" cy="659.97" r="15.23"/><text class="cls-8" transform="translate(97.52 666.74)">6</text><circle class="cls-4" cx="162.53" cy="742.07" r="7.61"/><circle class="cls-4" cx="146.71" cy="762.78" r="7.61"/><circle class="cls-4" cx="131.82" cy="750.83" r="7.61"/><circle class="cls-5" cx="156.94" cy="760.64" r="7.61"/><circle class="cls-6" cx="134.27" cy="741.27" r="7.61"/><circle class="cls-7" cx="147.08" cy="749.7" r="15.23"/><text class="cls-8" transform="translate(141.89 756.54)">7</text><circle class="cls-4" cx="161.97" cy="561.39" r="7.61"/><circle class="cls-4" cx="146.15" cy="582.1" r="7.61"/><circle class="cls-4" cx="131.25" cy="570.15" r="7.61"/><circle class="cls-5" cx="156.38" cy="579.97" r="7.61"/><circle class="cls-6" cx="133.71" cy="560.59" r="7.61"/><circle class="cls-7" cx="146.52" cy="569.02" r="15.23"/><text class="cls-8" transform="translate(141.32 576.51)">8</text><circle class="cls-4" cx="183.02" cy="652.1" r="7.61"/><circle class="cls-4" cx="167.2" cy="672.82" r="7.61"/><circle class="cls-4" cx="152.3" cy="660.87" r="7.61"/><circle class="cls-5" cx="177.43" cy="670.68" r="7.61"/><circle class="cls-6" cx="154.75" cy="651.3" r="7.61"/><circle class="cls-7" cx="167.57" cy="659.74" r="15.23"/><text class="cls-8" transform="translate(162.37 666.51)">9</text><circle class="cls-4" cx="224.97" cy="741.91" r="7.61"/><circle class="cls-4" cx="209.15" cy="762.63" r="7.61"/><circle class="cls-4" cx="194.25" cy="750.68" r="7.61"/><circle class="cls-5" cx="219.38" cy="760.49" r="7.61"/><circle class="cls-6" cx="196.7" cy="741.11" r="7.61"/><circle class="cls-7" cx="209.52" cy="749.55" r="15.23"/><text class="cls-8" transform="translate(200.97 757.38)">10</text><circle class="cls-4" cx="224.4" cy="561.24" r="7.61"/><circle class="cls-4" cx="208.58" cy="581.95" r="7.61"/><circle class="cls-4" cx="193.69" cy="570" r="7.61"/><circle class="cls-5" cx="218.81" cy="579.82" r="7.61"/><circle class="cls-6" cx="196.14" cy="560.44" r="7.61"/><circle class="cls-7" cx="208.95" cy="568.87" r="15.23"/><text class="cls-8" transform="translate(198.42 576.36)">11</text><circle class="cls-4" cx="245.45" cy="650.84" r="7.61"/><circle class="cls-4" cx="229.63" cy="671.56" r="7.61"/><circle class="cls-4" cx="214.73" cy="659.61" r="7.61"/><circle class="cls-5" cx="239.86" cy="669.42" r="7.61"/><circle class="cls-6" cx="217.19" cy="650.04" r="7.61"/><circle class="cls-7" cx="230" cy="658.48" r="15.23"/><text class="cls-8" transform="translate(219.34 665.44)">12</text><circle class="cls-4" cx="287.13" cy="742.07" r="7.61"/><circle class="cls-4" cx="271.31" cy="762.78" r="7.61"/><circle class="cls-4" cx="256.41" cy="750.83" r="7.61"/><circle class="cls-5" cx="281.54" cy="760.64" r="7.61"/><circle class="cls-6" cx="258.87" cy="741.27" r="7.61"/><circle class="cls-7" cx="271.68" cy="749.7" r="15.23"/><text class="cls-8" transform="translate(260.58 757.53)">13</text><circle class="cls-4" cx="286.56" cy="562.5" r="7.61"/><circle class="cls-4" cx="270.74" cy="583.21" r="7.61"/><circle class="cls-4" cx="255.85" cy="571.26" r="7.61"/><circle class="cls-5" cx="280.98" cy="581.08" r="7.61"/><circle class="cls-6" cx="258.3" cy="561.7" r="7.61"/><circle class="cls-7" cx="271.11" cy="570.13" r="15.23"/><text class="cls-8" transform="translate(260.58 577.62)">14</text><circle class="cls-4" cx="307.87" cy="652.1" r="7.62"/><circle class="cls-4" cx="292.03" cy="672.83" r="7.62"/><circle class="cls-4" cx="277.13" cy="660.87" r="7.62"/><circle class="cls-5" cx="302.27" cy="670.69" r="7.62"/><circle class="cls-6" cx="279.58" cy="651.3" r="7.62"/><circle class="cls-7" cx="292.4" cy="659.74" r="15.24"/><text class="cls-9" transform="translate(281.74 666.7)">15</text><circle class="cls-4" cx="348.58" cy="742.13" r="7.62"/><circle class="cls-4" cx="332.75" cy="762.86" r="7.62"/><circle class="cls-4" cx="317.84" cy="750.9" r="7.62"/><circle class="cls-5" cx="342.99" cy="760.72" r="7.62"/><circle class="cls-6" cx="320.3" cy="741.33" r="7.62"/><circle class="cls-7" cx="333.12" cy="749.77" r="15.24"/><text class="cls-9" transform="translate(322.01 757.61)">16</text><circle class="cls-4" cx="348.01" cy="562.42" r="7.62"/><circle class="cls-4" cx="332.18" cy="583.15" r="7.62"/><circle class="cls-4" cx="317.27" cy="571.19" r="7.62"/><circle class="cls-5" cx="342.42" cy="581.01" r="7.62"/><circle class="cls-6" cx="319.73" cy="561.62" r="7.62"/><circle class="cls-7" cx="332.55" cy="570.06" r="15.24"/><text class="cls-9" transform="translate(322.01 577.55) scale(0.95 1)">17</text><circle class="cls-4" cx="369.09" cy="652.1" r="7.62"/><circle class="cls-4" cx="353.25" cy="672.83" r="7.62"/><circle class="cls-4" cx="338.35" cy="660.87" r="7.62"/><circle class="cls-5" cx="363.49" cy="670.69" r="7.62"/><circle class="cls-6" cx="340.8" cy="651.3" r="7.62"/><circle class="cls-7" cx="353.62" cy="659.74" r="15.24"/><text class="cls-9" transform="translate(342.96 666.7)">18</text><circle class="cls-4" cx="411.16" cy="754.97" r="8.44"/><circle class="cls-4" cx="433.8" cy="772.93" r="8.44"/><circle class="cls-4" cx="420.24" cy="789.19" r="8.44"/><circle class="cls-5" cx="431.64" cy="761.54" r="8.44"/><circle class="cls-6" cx="409.69" cy="786.28" r="8.44"/><circle class="cls-7" cx="419.3" cy="772.25" r="16.88"/><text class="cls-10" transform="translate(406.24 780.69)">19</text><circle class="cls-4" cx="411.13" cy="680.67" r="8.44"/><circle class="cls-4" cx="433.77" cy="698.63" r="8.44"/><circle class="cls-4" cx="420.22" cy="714.9" r="8.44"/><circle class="cls-5" cx="431.61" cy="687.24" r="8.44"/><circle class="cls-6" cx="409.67" cy="711.98" r="8.44"/><circle class="cls-7" cx="419.28" cy="697.95" r="16.88"/><text class="cls-10" transform="translate(407.05 706.39)">20</text><circle class="cls-4" cx="410.74" cy="597.44" r="8.44"/><circle class="cls-4" cx="433.38" cy="615.4" r="8.44"/><circle class="cls-4" cx="419.82" cy="631.67" r="8.44"/><circle class="cls-5" cx="431.22" cy="604.01" r="8.44"/><circle class="cls-6" cx="409.27" cy="628.75" r="8.44"/><circle class="cls-7" cx="418.88" cy="614.72" r="16.88"/><text class="cls-10" transform="translate(407.94 622.45) rotate(-1.17)">21</text><circle class="cls-4" cx="410.51" cy="514.15" r="8.44"/><circle class="cls-4" cx="433.15" cy="532.1" r="8.44"/><circle class="cls-4" cx="419.6" cy="548.37" r="8.44"/><circle class="cls-5" cx="430.99" cy="520.72" r="8.44"/><circle class="cls-6" cx="409.05" cy="545.46" r="8.44"/><circle class="cls-7" cx="418.66" cy="531.43" r="16.88"/><text class="cls-10" transform="translate(406.08 539.93)">22</text><circle class="cls-4" cx="411.83" cy="439.32" r="8.44"/><circle class="cls-4" cx="434.47" cy="457.28" r="8.44"/><circle class="cls-4" cx="420.92" cy="473.55" r="8.44"/><circle class="cls-5" cx="432.31" cy="445.9" r="8.44"/><circle class="cls-6" cx="410.37" cy="470.64" r="8.44"/><circle class="cls-7" cx="419.98" cy="456.61" r="16.88"/><text class="cls-10" transform="translate(407.3 465.05)">23</text><circle class="cls-4" cx="412.93" cy="364.5" r="8.44"/><circle class="cls-4" cx="435.57" cy="382.46" r="8.44"/><circle class="cls-4" cx="422.02" cy="398.73" r="8.44"/><circle class="cls-5" cx="433.41" cy="371.08" r="8.44"/><circle class="cls-6" cx="411.47" cy="395.81" r="8.44"/><circle class="cls-7" cx="421.08" cy="381.78" r="16.88"/><text class="cls-10" transform="translate(408.02 390.23)">24</text><circle class="cls-4" cx="412.91" cy="290.21" r="8.44"/><circle class="cls-4" cx="435.55" cy="308.16" r="8.44"/><circle class="cls-4" cx="421.99" cy="324.43" r="8.44"/><circle class="cls-5" cx="433.39" cy="296.78" r="8.44"/><circle class="cls-6" cx="411.44" cy="321.52" r="8.44"/><circle class="cls-7" cx="421.05" cy="307.49" r="16.88"/><text class="cls-10" transform="translate(408.83 315.93)">25</text><circle class="cls-4" cx="467.19" cy="726.78" r="8.86"/><circle class="cls-4" cx="490.94" cy="745.62" r="8.86"/><circle class="cls-4" cx="476.72" cy="762.69" r="8.86"/><circle class="cls-5" cx="488.67" cy="733.68" r="8.86"/><circle class="cls-6" cx="465.65" cy="759.63" r="8.86"/><circle class="cls-7" cx="475.74" cy="744.91" r="17.71"/><text class="cls-11" transform="translate(462.03 753.77)">26</text><circle class="cls-4" cx="466.38" cy="648.84" r="8.86"/><circle class="cls-4" cx="490.13" cy="667.68" r="8.86"/><circle class="cls-4" cx="475.92" cy="684.75" r="8.86"/><circle class="cls-5" cx="487.87" cy="655.74" r="8.86"/><circle class="cls-6" cx="464.85" cy="681.69" r="8.86"/><circle class="cls-7" cx="474.93" cy="666.97" r="17.71"/><text class="cls-11" transform="translate(462.11 675.83)">27</text><circle class="cls-4" cx="465.97" cy="561.53" r="8.86"/><circle class="cls-4" cx="489.72" cy="580.37" r="8.86"/><circle class="cls-4" cx="475.5" cy="597.44" r="8.86"/><circle class="cls-5" cx="487.46" cy="568.43" r="8.86"/><circle class="cls-6" cx="464.44" cy="594.38" r="8.86"/><circle class="cls-7" cx="474.52" cy="579.66" r="17.71"/><text class="cls-11" transform="translate(462.27 587.77) rotate(-1.17)">28</text><circle class="cls-4" cx="466.51" cy="474.15" r="8.86"/><circle class="cls-4" cx="490.26" cy="492.99" r="8.86"/><circle class="cls-4" cx="476.04" cy="510.06" r="8.86"/><circle class="cls-5" cx="487.99" cy="481.05" r="8.86"/><circle class="cls-6" cx="464.97" cy="507" r="8.86"/><circle class="cls-7" cx="475.06" cy="492.28" r="17.71"/><text class="cls-11" transform="translate(461.86 501.2)">29</text><circle class="cls-4" cx="467.12" cy="395.66" r="8.86"/><circle class="cls-4" cx="490.87" cy="414.5" r="8.86"/><circle class="cls-4" cx="476.65" cy="431.57" r="8.86"/><circle class="cls-5" cx="488.6" cy="402.56" r="8.86"/><circle class="cls-6" cx="465.58" cy="428.51" r="8.86"/><circle class="cls-7" cx="475.67" cy="413.79" r="17.71"/><text class="cls-11" transform="translate(462.37 422.64)">30</text><circle class="cls-4" cx="468.69" cy="317.17" r="8.86"/><circle class="cls-4" cx="492.44" cy="336.01" r="8.86"/><circle class="cls-4" cx="478.22" cy="353.07" r="8.86"/><circle class="cls-5" cx="490.17" cy="324.06" r="8.86"/><circle class="cls-6" cx="467.15" cy="350.01" r="8.86"/><circle class="cls-7" cx="477.24" cy="335.3" r="17.71"/><text class="cls-11" transform="translate(464.98 343.41) rotate(-1.17)">31</text><circle class="cls-4" cx="468.45" cy="234.79" r="8.86"/><circle class="cls-4" cx="492.2" cy="253.63" r="8.86"/><circle class="cls-4" cx="477.98" cy="270.7" r="8.86"/><circle class="cls-5" cx="489.93" cy="241.69" r="8.86"/><circle class="cls-6" cx="466.92" cy="267.64" r="8.86"/><circle class="cls-7" cx="477" cy="252.92" r="17.71"/><text class="cls-11" transform="translate(463.8 261.84)">32</text><circle class="cls-4" cx="467.89" cy="160.18" r="8.86"/><circle class="cls-4" cx="491.64" cy="179.02" r="8.86"/><circle class="cls-4" cx="477.42" cy="196.09" r="8.86"/><circle class="cls-5" cx="489.37" cy="167.08" r="8.86"/><circle class="cls-6" cx="466.35" cy="193.03" r="8.86"/><circle class="cls-7" cx="476.43" cy="178.31" r="17.71"/><text class="cls-11" transform="translate(463.8 187.17)">33</text><circle class="cls-4" cx="523.54" cy="756.08" r="9.27"/><circle class="cls-4" cx="548.39" cy="775.8" r="9.27"/><circle class="cls-4" cx="533.52" cy="793.66" r="9.27"/><circle class="cls-5" cx="546.02" cy="763.3" r="9.27"/><circle class="cls-6" cx="521.93" cy="790.45" r="9.27"/><circle class="cls-7" cx="532.48" cy="775.05" r="18.53"/><text class="cls-12" transform="translate(518.15 784.32)">34</text><circle class="cls-4" cx="523.51" cy="674.52" r="9.27"/><circle class="cls-4" cx="548.36" cy="694.23" r="9.27"/><circle class="cls-4" cx="533.49" cy="712.09" r="9.27"/><circle class="cls-5" cx="545.99" cy="681.73" r="9.27"/><circle class="cls-6" cx="521.9" cy="708.89" r="9.27"/><circle class="cls-7" cx="532.45" cy="693.49" r="18.53"/><text class="cls-12" transform="translate(519.03 702.76)">35</text><circle class="cls-4" cx="523.08" cy="583.15" r="9.27"/><circle class="cls-4" cx="547.93" cy="602.86" r="9.27"/><circle class="cls-4" cx="533.05" cy="620.72" r="9.27"/><circle class="cls-5" cx="545.56" cy="590.36" r="9.27"/><circle class="cls-6" cx="521.47" cy="617.52" r="9.27"/><circle class="cls-7" cx="532.02" cy="602.12" r="18.53"/><text class="cls-12" transform="translate(520.01 610.6) rotate(-1.17)">36</text><circle class="cls-4" cx="522.83" cy="491.71" r="9.27"/><circle class="cls-4" cx="547.68" cy="511.42" r="9.27"/><circle class="cls-4" cx="532.81" cy="529.28" r="9.27"/><circle class="cls-5" cx="545.31" cy="498.92" r="9.27"/><circle class="cls-6" cx="521.22" cy="526.08" r="9.27"/><circle class="cls-7" cx="531.77" cy="510.68" r="18.53"/><text class="cls-12" transform="translate(517.96 520.01)">37</text><circle class="cls-4" cx="524.28" cy="409.57" r="9.27"/><circle class="cls-4" cx="549.13" cy="429.28" r="9.27"/><circle class="cls-4" cx="534.25" cy="447.14" r="9.27"/><circle class="cls-5" cx="546.76" cy="416.78" r="9.27"/><circle class="cls-6" cx="522.67" cy="443.94" r="9.27"/><circle class="cls-7" cx="533.22" cy="428.54" r="18.53"/><text class="cls-12" transform="translate(519.31 437.81)">38</text><circle class="cls-4" cx="525.49" cy="327.43" r="9.27"/><circle class="cls-4" cx="550.35" cy="347.14" r="9.27"/><circle class="cls-4" cx="535.47" cy="365" r="9.27"/><circle class="cls-5" cx="547.97" cy="334.64" r="9.27"/><circle class="cls-6" cx="523.89" cy="361.8" r="9.27"/><circle class="cls-7" cx="534.44" cy="346.4" r="18.53"/><text class="cls-12" transform="translate(520.91 355.67)">39</text><circle class="cls-4" cx="525.46" cy="245.86" r="9.27"/><circle class="cls-4" cx="550.31" cy="265.58" r="9.27"/><circle class="cls-4" cx="535.44" cy="283.44" r="9.27"/><circle class="cls-5" cx="547.94" cy="253.08" r="9.27"/><circle class="cls-6" cx="523.86" cy="280.24" r="9.27"/><circle class="cls-7" cx="534.41" cy="264.84" r="18.53"/><text class="cls-12" transform="translate(520.99 274.1)">40</text><circle class="cls-4" cx="581.76" cy="727.16" r="8.93"/><circle class="cls-4" cx="605.72" cy="746.16" r="8.93"/><circle class="cls-4" cx="591.38" cy="763.37" r="8.93"/><circle class="cls-5" cx="603.43" cy="734.11" r="8.93"/><circle class="cls-6" cx="580.22" cy="760.29" r="8.93"/><circle class="cls-7" cx="590.38" cy="745.44" r="17.86"/><text class="cls-13" transform="translate(576.57 754.38)">41</text><circle class="cls-4" cx="580.95" cy="648.55" r="8.93"/><circle class="cls-4" cx="604.91" cy="667.55" r="8.93"/><circle class="cls-4" cx="590.57" cy="684.76" r="8.93"/><circle class="cls-5" cx="602.62" cy="655.51" r="8.93"/><circle class="cls-6" cx="579.41" cy="681.68" r="8.93"/><circle class="cls-7" cx="589.57" cy="666.84" r="17.86"/><text class="cls-13" transform="translate(576.64 675.77)">42</text><circle class="cls-4" cx="580.54" cy="560.49" r="8.93"/><circle class="cls-4" cx="604.49" cy="579.49" r="8.93"/><circle class="cls-4" cx="590.15" cy="596.7" r="8.93"/><circle class="cls-5" cx="602.21" cy="567.44" r="8.93"/><circle class="cls-6" cx="578.99" cy="593.62" r="8.93"/><circle class="cls-7" cx="589.16" cy="578.77" r="17.86"/><text class="cls-13" transform="translate(576.8 586.95) rotate(-1.17)">43</text><circle class="cls-4" cx="581.08" cy="472.36" r="8.93"/><circle class="cls-4" cx="605.03" cy="491.36" r="8.93"/><circle class="cls-4" cx="590.69" cy="508.58" r="8.93"/><circle class="cls-5" cx="602.75" cy="479.32" r="8.93"/><circle class="cls-6" cx="579.53" cy="505.49" r="8.93"/><circle class="cls-7" cx="589.7" cy="490.65" r="17.86"/><text class="cls-13" transform="translate(576.39 499.65)">44</text><circle class="cls-4" cx="581.69" cy="393.2" r="8.93"/><circle class="cls-4" cx="605.65" cy="412.2" r="8.93"/><circle class="cls-4" cx="591.31" cy="429.41" r="8.93"/><circle class="cls-5" cx="603.36" cy="400.16" r="8.93"/><circle class="cls-6" cx="580.15" cy="426.33" r="8.93"/><circle class="cls-7" cx="590.31" cy="411.49" r="17.86"/><text class="cls-13" transform="translate(576.91 420.42)">45</text><circle class="cls-4" cx="583.27" cy="314.04" r="8.93"/><circle class="cls-4" cx="607.23" cy="333.04" r="8.93"/><circle class="cls-4" cx="592.89" cy="350.25" r="8.93"/><circle class="cls-5" cx="604.94" cy="320.99" r="8.93"/><circle class="cls-6" cx="581.73" cy="347.16" r="8.93"/><circle class="cls-7" cx="591.9" cy="332.32" r="17.86"/><text class="cls-13" transform="translate(579.54 340.5) rotate(-1.17)">46</text><circle class="cls-4" cx="583.04" cy="225.91" r="8.93"/><circle class="cls-4" cx="606.99" cy="244.91" r="8.93"/><circle class="cls-4" cx="592.65" cy="262.12" r="8.93"/><circle class="cls-5" cx="604.7" cy="232.87" r="8.93"/><circle class="cls-6" cx="581.49" cy="259.04" r="8.93"/><circle class="cls-7" cx="591.66" cy="244.2" r="17.86"/><text class="cls-13" transform="translate(578.35 253.19)">47</text><circle class="cls-4" cx="582.47" cy="155.71" r="8.93"/><circle class="cls-4" cx="606.42" cy="174.71" r="8.93"/><circle class="cls-4" cx="592.08" cy="191.92" r="8.93"/><circle class="cls-5" cx="604.14" cy="162.66" r="8.93"/><circle class="cls-6" cx="580.92" cy="188.84" r="8.93"/><circle class="cls-7" cx="591.09" cy="173.99" r="17.86"/><text class="cls-13" transform="translate(578.35 182.93)">48</text><circle class="cls-4" cx="635.5" cy="751.49" r="9.12"/><circle class="cls-4" cx="659.96" cy="770.89" r="9.12"/><circle class="cls-4" cx="645.32" cy="788.47" r="9.12"/><circle class="cls-5" cx="657.63" cy="758.59" r="9.12"/><circle class="cls-6" cx="633.92" cy="785.32" r="9.12"/><circle class="cls-7" cx="644.3" cy="770.16" r="18.24"/><text class="cls-14" transform="translate(630.19 779.28)">49</text><circle class="cls-4" cx="635.47" cy="671.21" r="9.12"/><circle class="cls-4" cx="659.93" cy="690.61" r="9.12"/><circle class="cls-4" cx="645.29" cy="708.19" r="9.12"/><circle class="cls-5" cx="657.6" cy="678.31" r="9.12"/><circle class="cls-6" cx="633.89" cy="705.04" r="9.12"/><circle class="cls-7" cx="644.27" cy="689.88" r="18.24"/><text class="cls-14" transform="translate(631.06 699)">50</text><circle class="cls-4" cx="635.04" cy="581.28" r="9.12"/><circle class="cls-4" cx="659.51" cy="600.68" r="9.12"/><circle class="cls-4" cx="644.86" cy="618.26" r="9.12"/><circle class="cls-5" cx="657.17" cy="588.38" r="9.12"/><circle class="cls-6" cx="633.46" cy="615.11" r="9.12"/><circle class="cls-7" cx="643.85" cy="599.95" r="18.24"/><text class="cls-14" transform="translate(632.03 608.3) rotate(-1.17)">51</text><circle class="cls-4" cx="634.8" cy="491.28" r="9.12"/><circle class="cls-4" cx="659.26" cy="510.68" r="9.12"/><circle class="cls-4" cx="644.62" cy="528.26" r="9.12"/><circle class="cls-5" cx="656.93" cy="498.38" r="9.12"/><circle class="cls-6" cx="633.22" cy="525.11" r="9.12"/><circle class="cls-7" cx="643.6" cy="509.95" r="18.24"/><text class="cls-14" transform="translate(630.01 519.14)">52</text><circle class="cls-4" cx="636.22" cy="410.44" r="9.12"/><circle class="cls-4" cx="660.69" cy="429.84" r="9.12"/><circle class="cls-4" cx="646.04" cy="447.42" r="9.12"/><circle class="cls-5" cx="658.35" cy="417.54" r="9.12"/><circle class="cls-6" cx="634.64" cy="444.27" r="9.12"/><circle class="cls-7" cx="645.03" cy="429.11" r="18.24"/><text class="cls-14" transform="translate(631.34 438.23)">53</text><circle class="cls-4" cx="637.42" cy="329.59" r="9.12"/><circle class="cls-4" cx="661.88" cy="348.99" r="9.12"/><circle class="cls-4" cx="647.24" cy="366.57" r="9.12"/><circle class="cls-5" cx="659.55" cy="336.69" r="9.12"/><circle class="cls-6" cx="635.84" cy="363.42" r="9.12"/><circle class="cls-7" cx="646.22" cy="348.26" r="18.24"/><text class="cls-14" transform="translate(632.91 357.38)">54</text><circle class="cls-4" cx="637.39" cy="249.31" r="9.12"/><circle class="cls-4" cx="661.85" cy="268.71" r="9.12"/><circle class="cls-4" cx="647.21" cy="286.29" r="9.12"/><circle class="cls-5" cx="659.52" cy="256.41" r="9.12"/><circle class="cls-6" cx="635.81" cy="283.14" r="9.12"/><circle class="cls-7" cx="646.19" cy="267.98" r="18.24"/><text class="cls-14" transform="translate(632.98 277.1)">55</text><circle class="cls-4" cx="695.14" cy="726.28" r="8.93"/><circle class="cls-4" cx="719.16" cy="745.2" r="8.93"/><circle class="cls-4" cx="704.88" cy="762.46" r="8.93"/><circle class="cls-5" cx="716.83" cy="733.16" r="8.93"/><circle class="cls-6" cx="693.71" cy="759.42" r="8.93"/><circle class="cls-7" cx="703.83" cy="744.54" r="17.86"/><text class="cls-13" transform="matrix(1, 0, 0, 1, 690.04, 753.52)">56</text><circle class="cls-4" cx="694.06" cy="647.68" r="8.93"/><circle class="cls-4" cx="718.08" cy="666.6" r="8.93"/><circle class="cls-4" cx="703.8" cy="683.86" r="8.93"/><circle class="cls-5" cx="715.75" cy="654.56" r="8.93"/><circle class="cls-6" cx="692.63" cy="680.81" r="8.93"/><circle class="cls-7" cx="702.74" cy="665.93" r="17.86"/><text class="cls-13" transform="matrix(1, 0, 0, 1, 689.84, 674.91)">57</text><circle class="cls-4" cx="693.34" cy="559.62" r="8.93"/><circle class="cls-4" cx="717.36" cy="578.54" r="8.93"/><circle class="cls-4" cx="703.08" cy="595.8" r="8.93"/><circle class="cls-5" cx="715.03" cy="566.5" r="8.93"/><circle class="cls-6" cx="691.91" cy="592.75" r="8.93"/><circle class="cls-7" cx="702.02" cy="577.88" r="17.86"/><text class="cls-13" transform="translate(689.7 586.09) rotate(-1.36)">58</text><circle class="cls-4" cx="693.58" cy="471.49" r="8.93"/><circle class="cls-4" cx="717.6" cy="490.41" r="8.93"/><circle class="cls-4" cx="703.32" cy="507.67" r="8.93"/><circle class="cls-5" cx="715.27" cy="478.37" r="8.93"/><circle class="cls-6" cx="692.14" cy="504.63" r="8.93"/><circle class="cls-7" cx="702.26" cy="489.75" r="17.86"/><text class="cls-13" transform="matrix(1, 0, 0, 1, 688.98, 498.79)">59</text><circle class="cls-4" cx="693.92" cy="392.33" r="8.93"/><circle class="cls-4" cx="717.94" cy="411.24" r="8.93"/><circle class="cls-4" cx="703.66" cy="428.51" r="8.93"/><circle class="cls-5" cx="715.61" cy="399.21" r="8.93"/><circle class="cls-6" cx="692.48" cy="425.46" r="8.93"/><circle class="cls-7" cx="702.6" cy="410.58" r="17.86"/><text class="cls-13" transform="matrix(1, 0, 0, 1, 689.22, 419.56)">60</text><circle class="cls-4" cx="695.23" cy="313.16" r="8.93"/><circle class="cls-4" cx="719.25" cy="332.08" r="8.93"/><circle class="cls-4" cx="704.97" cy="349.34" r="8.93"/><circle class="cls-5" cx="716.92" cy="320.04" r="8.93"/><circle class="cls-6" cx="693.79" cy="346.29" r="8.93"/><circle class="cls-7" cx="703.91" cy="331.41" r="17.86"/><text class="cls-13" transform="translate(691.58 339.63) rotate(-1.36)">61</text><circle class="cls-4" cx="694.68" cy="225.03" r="8.93"/><circle class="cls-4" cx="718.7" cy="243.95" r="8.93"/><circle class="cls-4" cx="704.42" cy="261.21" r="8.93"/><circle class="cls-5" cx="716.37" cy="231.91" r="8.93"/><circle class="cls-6" cx="693.25" cy="258.17" r="8.93"/><circle class="cls-7" cx="703.37" cy="243.29" r="17.86"/><text class="cls-13" transform="matrix(1, 0, 0, 1, 690.09, 252.33)">62</text><circle class="cls-4" cx="693.87" cy="154.83" r="8.93"/><circle class="cls-4" cx="717.89" cy="173.75" r="8.93"/><circle class="cls-4" cx="703.61" cy="191.01" r="8.93"/><circle class="cls-5" cx="715.56" cy="161.71" r="8.93"/><circle class="cls-6" cx="692.44" cy="187.97" r="8.93"/><circle class="cls-7" cx="702.56" cy="173.09" r="17.86"/><text class="cls-13" transform="matrix(1, 0, 0, 1, 689.84, 182.07)">63</text><circle class="cls-4" cx="756.92" cy="747.59" r="8.93"/><circle class="cls-4" cx="780.87" cy="766.59" r="8.93"/><circle class="cls-4" cx="766.53" cy="783.8" r="8.93"/><circle class="cls-5" cx="778.59" cy="754.54" r="8.93"/><circle class="cls-6" cx="755.37" cy="780.71" r="8.93"/><circle class="cls-7" cx="765.54" cy="765.87" r="17.86"/><text class="cls-13" transform="translate(751.72 774.8)">64</text><circle class="cls-4" cx="756.11" cy="668.98" r="8.93"/><circle class="cls-4" cx="780.06" cy="687.98" r="8.93"/><circle class="cls-4" cx="765.72" cy="705.19" r="8.93"/><circle class="cls-5" cx="777.77" cy="675.93" r="8.93"/><circle class="cls-6" cx="754.56" cy="702.11" r="8.93"/><circle class="cls-7" cx="764.73" cy="687.26" r="17.86"/><text class="cls-13" transform="translate(751.79 696.19)">65</text><circle class="cls-4" cx="755.69" cy="580.92" r="8.93"/><circle class="cls-4" cx="779.64" cy="599.92" r="8.93"/><circle class="cls-4" cx="765.31" cy="617.13" r="8.93"/><circle class="cls-5" cx="777.36" cy="587.87" r="8.93"/><circle class="cls-6" cx="754.14" cy="614.05" r="8.93"/><circle class="cls-7" cx="764.31" cy="599.2" r="17.86"/><text class="cls-13" transform="translate(751.95 607.38) rotate(-1.17)">66</text><circle class="cls-4" cx="756.23" cy="492.79" r="8.93"/><circle class="cls-4" cx="780.19" cy="511.79" r="8.93"/><circle class="cls-4" cx="765.85" cy="529" r="8.93"/><circle class="cls-5" cx="777.9" cy="499.75" r="8.93"/><circle class="cls-6" cx="754.69" cy="525.92" r="8.93"/><circle class="cls-7" cx="764.85" cy="511.08" r="17.86"/><text class="cls-13" transform="translate(751.54 520.07)">67</text><circle class="cls-4" cx="756.85" cy="413.63" r="8.93"/><circle class="cls-4" cx="780.8" cy="432.63" r="8.93"/><circle class="cls-4" cx="766.46" cy="449.84" r="8.93"/><circle class="cls-5" cx="778.52" cy="420.58" r="8.93"/><circle class="cls-6" cx="755.3" cy="446.76" r="8.93"/><circle class="cls-7" cx="765.47" cy="431.91" r="17.86"/><text class="cls-13" transform="translate(752.06 440.84)">68</text><circle class="cls-4" cx="758.43" cy="334.46" r="8.93"/><circle class="cls-4" cx="782.38" cy="353.46" r="8.93"/><circle class="cls-4" cx="768.04" cy="370.68" r="8.93"/><circle class="cls-5" cx="780.1" cy="341.42" r="8.93"/><circle class="cls-6" cx="756.88" cy="367.59" r="8.93"/><circle class="cls-7" cx="767.05" cy="352.75" r="17.86"/><text class="cls-13" transform="translate(754.69 360.93) rotate(-1.17)">69</text><circle class="cls-4" cx="758.19" cy="246.34" r="8.93"/><circle class="cls-4" cx="782.14" cy="265.34" r="8.93"/><circle class="cls-4" cx="767.81" cy="282.55" r="8.93"/><circle class="cls-5" cx="779.86" cy="253.29" r="8.93"/><circle class="cls-6" cx="756.64" cy="279.47" r="8.93"/><circle class="cls-7" cx="766.81" cy="264.62" r="17.86"/><text class="cls-13" transform="translate(753.5 273.62)">70</text><circle class="cls-4" cx="757.62" cy="176.14" r="8.93"/><circle class="cls-4" cx="781.58" cy="195.14" r="8.93"/><circle class="cls-4" cx="767.24" cy="212.35" r="8.93"/><circle class="cls-5" cx="779.29" cy="183.09" r="8.93"/><circle class="cls-6" cx="756.08" cy="209.26" r="8.93"/><circle class="cls-7" cx="766.24" cy="194.42" r="17.86"/><text class="cls-13" transform="translate(753.5 203.35)">71</text><circle class="cls-4" cx="819.38" cy="728.25" r="8.93"/><circle class="cls-4" cx="843.34" cy="747.25" r="8.93"/><circle class="cls-4" cx="829" cy="764.46" r="8.93"/><circle class="cls-5" cx="841.05" cy="735.2" r="8.93"/><circle class="cls-6" cx="817.84" cy="761.37" r="8.93"/><circle class="cls-7" cx="828.01" cy="746.53" r="17.86"/><text class="cls-13" transform="translate(815.19 755.46)">72</text><circle class="cls-4" cx="818.57" cy="649.64" r="8.93"/><circle class="cls-4" cx="842.53" cy="668.64" r="8.93"/><circle class="cls-4" cx="828.19" cy="685.85" r="8.93"/><circle class="cls-5" cx="840.24" cy="656.59" r="8.93"/><circle class="cls-6" cx="817.03" cy="682.77" r="8.93"/><circle class="cls-7" cx="827.19" cy="667.92" r="17.86"/><text class="cls-13" transform="translate(814.26 676.85)">73</text><circle class="cls-4" cx="818.16" cy="561.58" r="8.93"/><circle class="cls-4" cx="842.11" cy="580.58" r="8.93"/><circle class="cls-4" cx="827.77" cy="597.79" r="8.93"/><circle class="cls-5" cx="839.83" cy="568.53" r="8.93"/><circle class="cls-6" cx="816.61" cy="594.71" r="8.93"/><circle class="cls-7" cx="826.78" cy="579.86" r="17.86"/><text class="cls-13" transform="translate(814.42 589.04) rotate(-1.17)">74</text><circle class="cls-4" cx="818.7" cy="473.45" r="8.93"/><circle class="cls-4" cx="842.65" cy="492.45" r="8.93"/><circle class="cls-4" cx="828.32" cy="509.66" r="8.93"/><circle class="cls-5" cx="840.37" cy="480.41" r="8.93"/><circle class="cls-6" cx="817.15" cy="506.58" r="8.93"/><circle class="cls-7" cx="827.32" cy="491.74" r="17.86"/><text class="cls-13" transform="translate(814.01 500.73)">75</text><circle class="cls-4" cx="819.31" cy="394.29" r="8.93"/><circle class="cls-4" cx="843.27" cy="413.29" r="8.93"/><circle class="cls-4" cx="828.93" cy="430.5" r="8.93"/><circle class="cls-5" cx="840.98" cy="401.24" r="8.93"/><circle class="cls-6" cx="817.77" cy="427.42" r="8.93"/><circle class="cls-7" cx="827.94" cy="412.57" r="17.86"/><text class="cls-13" transform="translate(814.53 421.5)">76</text><circle class="cls-4" cx="820.9" cy="315.12" r="8.93"/><circle class="cls-4" cx="844.85" cy="334.12" r="8.93"/><circle class="cls-4" cx="830.51" cy="351.34" r="8.93"/><circle class="cls-5" cx="842.57" cy="322.08" r="8.93"/><circle class="cls-6" cx="819.35" cy="348.25" r="8.93"/><circle class="cls-7" cx="829.52" cy="333.41" r="17.86"/><text class="cls-13" transform="translate(817.16 343.59) rotate(-1.17)">77</text><circle class="cls-4" cx="820.66" cy="227" r="8.93"/><circle class="cls-4" cx="844.61" cy="246" r="8.93"/><circle class="cls-4" cx="830.27" cy="263.21" r="8.93"/><circle class="cls-5" cx="842.33" cy="233.95" r="8.93"/><circle class="cls-6" cx="819.11" cy="260.13" r="8.93"/><circle class="cls-7" cx="829.28" cy="245.28" r="17.86"/><text class="cls-13" transform="translate(815.97 254.28)">78</text><circle class="cls-4" cx="820.09" cy="156.8" r="8.93"/><circle class="cls-4" cx="844.04" cy="175.8" r="8.93"/><circle class="cls-4" cx="829.71" cy="193.01" r="8.93"/><circle class="cls-5" cx="841.76" cy="163.75" r="8.93"/><circle class="cls-6" cx="818.54" cy="189.92" r="8.93"/><circle class="cls-7" cx="828.71" cy="175.08" r="17.86"/><text class="cls-13" transform="translate(815.97 184.01)">79</text><circle class="cls-4" cx="877.93" cy="754.35" r="8.93"/><circle class="cls-4" cx="901.88" cy="773.35" r="8.93"/><circle class="cls-4" cx="887.54" cy="790.57" r="8.93"/><circle class="cls-5" cx="899.6" cy="761.31" r="8.93"/><circle class="cls-6" cx="876.38" cy="787.48" r="8.93"/><circle class="cls-7" cx="886.55" cy="772.64" r="17.86"/><text class="cls-13" transform="translate(873.73 781.57)">80</text><circle class="cls-4" cx="878.11" cy="675.74" r="8.93"/><circle class="cls-4" cx="902.07" cy="694.74" r="8.93"/><circle class="cls-4" cx="887.73" cy="711.96" r="8.93"/><circle class="cls-5" cx="899.78" cy="682.7" r="8.93"/><circle class="cls-6" cx="876.57" cy="708.87" r="8.93"/><circle class="cls-7" cx="886.74" cy="694.03" r="17.86"/><text class="cls-13" transform="translate(873.8 702.96)">81</text><circle class="cls-4" cx="876.34" cy="587.91" r="8.93"/><circle class="cls-4" cx="900.29" cy="606.91" r="8.93"/><circle class="cls-4" cx="885.95" cy="624.12" r="8.93"/><circle class="cls-5" cx="898.01" cy="594.86" r="8.93"/><circle class="cls-6" cx="874.79" cy="621.03" r="8.93"/><circle class="cls-7" cx="884.96" cy="606.19" r="17.86"/><text class="cls-13" transform="translate(872.03 615.12)">82</text><circle class="cls-4" cx="876.03" cy="510.92" r="8.93"/><circle class="cls-4" cx="899.99" cy="529.92" r="8.93"/><circle class="cls-4" cx="885.65" cy="547.13" r="8.93"/><circle class="cls-5" cx="897.7" cy="517.87" r="8.93"/><circle class="cls-6" cx="874.49" cy="544.05" r="8.93"/><circle class="cls-7" cx="884.66" cy="529.2" r="17.86"/><text class="cls-13" transform="translate(872.3 538.38) rotate(-1.17)">83</text><circle class="cls-4" cx="876.57" cy="422.79" r="8.93"/><circle class="cls-4" cx="900.53" cy="441.79" r="8.93"/><circle class="cls-4" cx="886.19" cy="459.01" r="8.93"/><circle class="cls-5" cx="898.24" cy="429.75" r="8.93"/><circle class="cls-6" cx="875.03" cy="455.92" r="8.93"/><circle class="cls-7" cx="885.2" cy="441.08" r="17.86"/><text class="cls-13" transform="translate(872.89 450.08)">84</text><circle class="cls-4" cx="876.19" cy="343.63" r="8.93"/><circle class="cls-4" cx="900.14" cy="362.63" r="8.93"/><circle class="cls-4" cx="885.81" cy="379.84" r="8.93"/><circle class="cls-5" cx="897.86" cy="350.59" r="8.93"/><circle class="cls-6" cx="874.64" cy="376.76" r="8.93"/><circle class="cls-7" cx="884.81" cy="361.92" r="17.86"/><text class="cls-13" transform="translate(872.4 370.85)">85</text><circle class="cls-4" cx="875.77" cy="264.47" r="8.93"/><circle class="cls-4" cx="899.73" cy="283.47" r="8.93"/><circle class="cls-4" cx="885.39" cy="300.68" r="8.93"/><circle class="cls-5" cx="897.44" cy="271.42" r="8.93"/><circle class="cls-6" cx="874.23" cy="297.6" r="8.93"/><circle class="cls-7" cx="884.39" cy="282.75" r="17.86"/><text class="cls-13" transform="translate(872.04 291.93) rotate(-1.17)">86</text><circle class="cls-4" cx="877.53" cy="176.34" r="8.93"/><circle class="cls-4" cx="901.49" cy="195.34" r="8.93"/><circle class="cls-4" cx="887.15" cy="212.55" r="8.93"/><circle class="cls-5" cx="899.2" cy="183.3" r="8.93"/><circle class="cls-6" cx="875.99" cy="209.47" r="8.93"/><circle class="cls-7" cx="886.15" cy="194.63" r="17.86"/><text class="cls-13" transform="translate(873.84 203.62)">87</text><g id="_88" data-name="88"><circle class="cls-4" cx="938.85" cy="324.84" r="8.93"/><circle class="cls-4" cx="962.8" cy="343.84" r="8.93"/><circle class="cls-4" cx="948.47" cy="361.06" r="8.93"/><circle class="cls-5" cx="960.52" cy="331.8" r="8.93"/><circle class="cls-6" cx="937.3" cy="357.97" r="8.93"/><circle class="cls-7" cx="947.47" cy="343.13" r="17.86"/><text class="cls-13" transform="translate(935.16 352.12)">88</text></g><g id="_89" data-name="89"><circle class="cls-4" cx="939.28" cy="254.64" r="8.93"/><circle class="cls-4" cx="963.24" cy="273.64" r="8.93"/><circle class="cls-4" cx="948.9" cy="290.85" r="8.93"/><circle class="cls-5" cx="960.95" cy="261.6" r="8.93"/><circle class="cls-6" cx="937.74" cy="287.77" r="8.93"/><circle class="cls-7" cx="947.9" cy="272.93" r="17.86"/><text class="cls-13" transform="translate(935.16 281.86)">89</text></g><g id="_90" data-name="90"><circle class="cls-4" cx="992.2" cy="286.48" r="8.93"/><circle class="cls-4" cx="1016.15" cy="305.48" r="8.93"/><circle class="cls-4" cx="1001.81" cy="322.7" r="8.93"/><circle class="cls-5" cx="1013.87" cy="293.44" r="8.93"/><circle class="cls-6" cx="990.65" cy="319.61" r="8.93"/><circle class="cls-7" cx="1000.82" cy="304.77" r="17.86"/><text class="cls-13" transform="translate(988.51 313.76)">90</text></g><g id="_91" data-name="91"><circle class="cls-4" cx="992.63" cy="216.28" r="8.93"/><circle class="cls-4" cx="1016.58" cy="235.28" r="8.93"/><circle class="cls-4" cx="1002.25" cy="252.49" r="8.93"/><circle class="cls-5" cx="1014.3" cy="223.23" r="8.93"/><circle class="cls-6" cx="991.08" cy="249.41" r="8.93"/><circle class="cls-7" cx="1001.25" cy="234.56" r="17.86"/><text class="cls-13" transform="translate(988.51 243.5)">91</text></g><g id="_92" data-name="92"><circle class="cls-4" cx="974.49" cy="692.86" r="8.93"/><circle class="cls-4" cx="998.45" cy="711.86" r="8.93"/><circle class="cls-4" cx="984.11" cy="729.08" r="8.93"/><circle class="cls-5" cx="996.16" cy="699.82" r="8.93"/><circle class="cls-6" cx="972.95" cy="725.99" r="8.93"/><circle class="cls-7" cx="983.11" cy="711.15" r="17.86"/><text class="cls-13" transform="translate(970.76 720.33) rotate(-1.17)">92</text></g><g id="_93" data-name="93"><circle class="cls-4" cx="976.25" cy="617.74" r="8.93"/><circle class="cls-4" cx="1000.21" cy="636.74" r="8.93"/><circle class="cls-4" cx="985.87" cy="653.95" r="8.93"/><circle class="cls-5" cx="997.92" cy="624.69" r="8.93"/><circle class="cls-6" cx="974.71" cy="650.87" r="8.93"/><circle class="cls-7" cx="984.88" cy="636.02" r="17.86"/><text class="cls-13" transform="translate(972.56 645.02)">93</text></g><g id="_94" data-name="94"><circle class="cls-4" cx="976.69" cy="547.54" r="8.93"/><circle class="cls-4" cx="1000.64" cy="566.54" r="8.93"/><circle class="cls-4" cx="986.3" cy="583.75" r="8.93"/><circle class="cls-5" cx="998.36" cy="554.49" r="8.93"/><circle class="cls-6" cx="975.14" cy="580.67" r="8.93"/><circle class="cls-7" cx="985.31" cy="565.82" r="17.86"/><text class="cls-13" transform="translate(972.56 574.75)">94</text></g><g id="_95" data-name="95"><circle class="cls-4" cx="1034.96" cy="705.43" r="8.93"/><circle class="cls-4" cx="1058.91" cy="724.43" r="8.93"/><circle class="cls-4" cx="1044.57" cy="741.65" r="8.93"/><circle class="cls-5" cx="1056.63" cy="712.39" r="8.93"/><circle class="cls-6" cx="1033.41" cy="738.56" r="8.93"/><circle class="cls-7" cx="1043.58" cy="723.72" r="17.86"/><text class="cls-13" transform="translate(1031.27 732.71)">95</text></g><g id="_96" data-name="96"><circle class="cls-4" cx="1035.39" cy="635.23" r="8.93"/><circle class="cls-4" cx="1059.34" cy="654.23" r="8.93"/><circle class="cls-4" cx="1045.01" cy="671.44" r="8.93"/><circle class="cls-5" cx="1057.06" cy="642.18" r="8.93"/><circle class="cls-6" cx="1033.84" cy="668.36" r="8.93"/><circle class="cls-7" cx="1044.01" cy="653.51" r="17.86"/><text class="cls-13" transform="translate(1031.27 662.45)">96</text></g><g id="_97" data-name="97"><circle class="cls-4" cx="1035.35" cy="561.7" r="8.93"/><circle class="cls-4" cx="1059.31" cy="580.7" r="8.93"/><circle class="cls-4" cx="1044.97" cy="597.92" r="8.93"/><circle class="cls-5" cx="1057.02" cy="568.66" r="8.93"/><circle class="cls-6" cx="1033.81" cy="594.83" r="8.93"/><circle class="cls-7" cx="1043.97" cy="579.99" r="17.86"/><text class="cls-13" transform="translate(1031.62 589.17) rotate(-1.17)">97</text></g><g id="_98" data-name="98"><circle class="cls-4" cx="1037.11" cy="479.58" r="8.93"/><circle class="cls-4" cx="1061.07" cy="498.58" r="8.93"/><circle class="cls-4" cx="1046.73" cy="515.79" r="8.93"/><circle class="cls-5" cx="1058.78" cy="486.53" r="8.93"/><circle class="cls-6" cx="1035.57" cy="512.71" r="8.93"/><circle class="cls-7" cx="1045.73" cy="497.86" r="17.86"/><text class="cls-13" transform="translate(1033.42 506.86)">98</text></g><g id="_99" data-name="99"><circle class="cls-4" cx="1037.54" cy="409.38" r="8.93"/><circle class="cls-4" cx="1061.5" cy="428.38" r="8.93"/><circle class="cls-4" cx="1047.16" cy="445.59" r="8.93"/><circle class="cls-5" cx="1059.21" cy="416.33" r="8.93"/><circle class="cls-6" cx="1036" cy="442.5" r="8.93"/><circle class="cls-7" cx="1046.17" cy="427.66" r="17.86"/><text class="cls-13" transform="translate(1033.42 436.59)">99</text></g><g id="_100" data-name="100"><circle class="cls-4" cx="1035.96" cy="340.55" r="8.93"/><circle class="cls-4" cx="1059.91" cy="359.55" r="8.93"/><circle class="cls-4" cx="1045.57" cy="376.77" r="8.93"/><circle class="cls-5" cx="1057.63" cy="347.51" r="8.93"/><circle class="cls-6" cx="1034.41" cy="373.68" r="8.93"/><circle class="cls-7" cx="1044.58" cy="358.84" r="17.86"/><text class="cls-15" transform="translate(1028.3 366.9)">100</text></g><g id="_101" data-name="101"><circle class="cls-4" cx="1092.49" cy="706.14" r="8.93"/><circle class="cls-4" cx="1116.45" cy="725.14" r="8.93"/><circle class="cls-4" cx="1102.11" cy="742.35" r="8.93"/><circle class="cls-5" cx="1114.16" cy="713.09" r="8.93"/><circle class="cls-6" cx="1090.95" cy="739.26" r="8.93"/><circle class="cls-7" cx="1101.12" cy="724.42" r="17.86"/><text class="cls-15" transform="translate(1086.01 732.61) rotate(-1.17)">101</text></g><g id="_102" data-name="102"><circle class="cls-4" cx="1094.25" cy="618.01" r="8.93"/><circle class="cls-4" cx="1118.21" cy="637.01" r="8.93"/><circle class="cls-4" cx="1103.87" cy="654.22" r="8.93"/><circle class="cls-5" cx="1115.92" cy="624.96" r="8.93"/><circle class="cls-6" cx="1092.71" cy="651.14" r="8.93"/><circle class="cls-7" cx="1102.88" cy="636.29" r="17.86"/><text class="cls-15" transform="translate(1086.01 644.16) rotate(-1.17)">102</text></g><g id="_103" data-name="103"><circle class="cls-4" cx="1094.69" cy="547.81" r="8.93"/><circle class="cls-4" cx="1118.64" cy="566.81" r="8.93"/><circle class="cls-4" cx="1104.3" cy="584.02" r="8.93"/><circle class="cls-5" cx="1116.36" cy="554.76" r="8.93"/><circle class="cls-6" cx="1093.14" cy="580.94" r="8.93"/><circle class="cls-7" cx="1103.31" cy="566.09" r="17.86"/><text class="cls-15" transform="translate(1087.46 574.16) rotate(-1.17)">103</text></g><g id="_104" data-name="104"><circle class="cls-4" cx="1094.01" cy="474.49" r="8.93"/><circle class="cls-4" cx="1117.97" cy="493.49" r="8.93"/><circle class="cls-4" cx="1103.63" cy="510.71" r="8.93"/><circle class="cls-5" cx="1115.68" cy="481.45" r="8.93"/><circle class="cls-6" cx="1092.47" cy="507.62" r="8.93"/><circle class="cls-7" cx="1102.63" cy="492.78" r="17.86"/><text class="cls-15" transform="translate(1086.46 500.55) rotate(-1.17)">104</text></g><g id="_105" data-name="105"><circle class="cls-4" cx="1095.77" cy="386.37" r="8.93"/><circle class="cls-4" cx="1119.73" cy="405.37" r="8.93"/><circle class="cls-4" cx="1105.39" cy="422.58" r="8.93"/><circle class="cls-5" cx="1117.44" cy="393.32" r="8.93"/><circle class="cls-6" cx="1094.23" cy="419.5" r="8.93"/><circle class="cls-7" cx="1104.39" cy="404.65" r="17.86"/><text class="cls-15" transform="translate(1088.85 412.53) rotate(-1.17)">105</text></g><g id="_106" data-name="106"><circle class="cls-4" cx="1096.2" cy="316.17" r="8.93"/><circle class="cls-4" cx="1120.16" cy="335.17" r="8.93"/><circle class="cls-4" cx="1105.82" cy="352.38" r="8.93"/><circle class="cls-5" cx="1117.87" cy="323.12" r="8.93"/><circle class="cls-6" cx="1094.66" cy="349.29" r="8.93"/><circle class="cls-7" cx="1104.83" cy="334.45" r="17.86"/><text class="cls-15" transform="translate(1088.85 342.27)">106</text></g><g id="_107" data-name="107"><circle class="cls-4" cx="1147.59" cy="691.51" r="8.93"/><circle class="cls-4" cx="1171.54" cy="710.51" r="8.93"/><circle class="cls-4" cx="1157.2" cy="727.72" r="8.93"/><circle class="cls-5" cx="1169.26" cy="698.46" r="8.93"/><circle class="cls-6" cx="1146.04" cy="724.63" r="8.93"/><circle class="cls-7" cx="1156.21" cy="709.79" r="17.86"/><text class="cls-15" transform="translate(1140.11 717.98) rotate(-1.17)">107</text></g><g id="_108" data-name="108"><circle class="cls-4" cx="1149.35" cy="603.38" r="8.93"/><circle class="cls-4" cx="1173.3" cy="622.38" r="8.93"/><circle class="cls-4" cx="1158.96" cy="639.59" r="8.93"/><circle class="cls-5" cx="1171.02" cy="610.33" r="8.93"/><circle class="cls-6" cx="1147.8" cy="636.51" r="8.93"/><circle class="cls-7" cx="1157.97" cy="621.66" r="17.86"/><text class="cls-15" transform="translate(1141.55 629.28) rotate(-1.17)">108</text></g><g id="_109" data-name="109"><circle class="cls-4" cx="1149.78" cy="533.18" r="8.93"/><circle class="cls-4" cx="1173.74" cy="552.18" r="8.93"/><circle class="cls-4" cx="1159.4" cy="569.39" r="8.93"/><circle class="cls-5" cx="1171.45" cy="540.13" r="8.93"/><circle class="cls-6" cx="1148.24" cy="566.31" r="8.93"/><circle class="cls-7" cx="1158.4" cy="551.46" r="17.86"/><text class="cls-15" transform="translate(1142.55 559.53) rotate(-1.17)">109</text></g><g id="_110" data-name="110"><circle class="cls-4" cx="1149.11" cy="459.86" r="8.93"/><circle class="cls-4" cx="1173.06" cy="478.86" r="8.93"/><circle class="cls-4" cx="1158.72" cy="496.08" r="8.93"/><circle class="cls-5" cx="1170.78" cy="466.82" r="8.93"/><circle class="cls-6" cx="1147.56" cy="492.99" r="8.93"/><circle class="cls-7" cx="1157.73" cy="478.15" r="17.86"/><text class="cls-15" transform="translate(1141.55 485.92) rotate(-1.17)">110</text></g><g id="_111" data-name="111"><circle class="cls-4" cx="1150.87" cy="371.74" r="8.93"/><circle class="cls-4" cx="1174.82" cy="390.74" r="8.93"/><circle class="cls-4" cx="1160.48" cy="407.95" r="8.93"/><circle class="cls-5" cx="1172.54" cy="378.69" r="8.93"/><circle class="cls-6" cx="1149.32" cy="404.87" r="8.93"/><circle class="cls-7" cx="1159.49" cy="390.02" r="17.86"/><text class="cls-15" transform="translate(1143.94 397.9) rotate(-1.17)">111</text></g><g id="_112" data-name="112"><circle class="cls-4" cx="1151.3" cy="301.54" r="8.93"/><circle class="cls-4" cx="1175.25" cy="320.54" r="8.93"/><circle class="cls-4" cx="1160.91" cy="337.75" r="8.93"/><circle class="cls-5" cx="1172.97" cy="308.49" r="8.93"/><circle class="cls-6" cx="1149.75" cy="334.66" r="8.93"/><circle class="cls-7" cx="1159.92" cy="319.82" r="17.86"/><text class="cls-15" transform="translate(1143.94 327.64)">112</text></g></g></svg>